Coordinates
version=1
nRows=10
nColumns=22
inDegrees=yes

Units are S.I. units (second, meters, Newtons, ...)
If the header above contains a line with 'inDegrees', this indicates whether rotational values are in degrees (yes) or radians (no).

endheader
time	pelvis_tilt	pelvis_list	pelvis_rotation	pelvis_tx	pelvis_ty	pelvis_tz	hip_flexion_r	hip_adduction_r	hip_rotation_r	knee_angle_r	ankle_angle_r	subtalar_angle_r	hip_flexion_l	hip_adduction_l	hip_rotation_l	knee_angle_l	ankle_angle_l	subtalar_angle_l	lumbar_extension	lumbar_bending	lumbar_rotation
      0.01000000	     -0.32644930	     -7.61702720	      6.46973099	      1.19690787	      0.96531899	     -0.31249831	      5.72622118	      8.49247175	     -7.61305870	    -17.76807427	      9.46955149	      0.47644510	      6.93233360	     -8.52685805	      6.70894407	    -18.54602376	     12.84801465	      1.51192360	     -0.08341065	      7.24329593	     -5.58406095
      0.02000000	     -0.38207103	     -7.53935704	      6.71381036	      1.19522378	      0.96534768	     -0.31217222	      5.87296233	      8.40136413	     -7.87409222	    -17.72605060	      9.43506460	      0.47842730	      7.23596104	     -8.43437910	      6.91024336	    -18.66813453	     12.67625529	      1.61919696	     -0.13558352	      7.18053812	     -5.55536028
      0.03000000	     -0.48079380	     -7.45073153	      7.00744646	      1.19315135	      0.96535681	     -0.31180832	      6.08563913	      8.28992647	     -8.17173122	    -17.67503488	      9.38211500	      0.47683185	      7.63806073	     -8.31923636	      7.15731420	    -18.81448979	     12.47883177	      1.77402184	     -0.16765718	      7.10924895	     -5.51942813
      0.04000000	     -0.59452365	     -7.34016355	      7.34469171	      1.19078551	      0.96540072	     -0.31143039	      6.31685849	      8.14813938	     -8.50867875	    -17.59856132	      9.31209557	      0.48140584	      8.07801872	     -8.17367818	      7.44175640	    -18.94940620	     12.22902679	      1.94994791	     -0.20729596	      7.01811196	     -5.47562900
      0.05000000	     -0.74337869	     -7.22534231	      7.72434804	      1.18808121	      0.96542514	     -0.31105657	      6.61641906	      7.98851794	     -8.87246209	    -17.54103318	      9.24050179	      0.49582275	      8.61016235	     -8.00795597	      7.75986066	    -19.12510823	     11.96066168	      2.17804312	     -0.23915672	      6.92452901	     -5.44853213
      0.06000000	     -0.87950790	     -7.06887031	      8.14099400	      1.18528162	      0.96556044	     -0.31075032	      6.86693997	      7.77881114	     -9.28129826	    -17.42076154	      9.14920044	      0.52042594	      9.07664679	     -7.79032859	      8.13123874	    -19.19633324	     11.61193685	      2.37015334	     -0.29316897	      6.79349798	     -5.41048082
      0.07000000	     -1.05832222	     -6.92275834	      8.58628942	      1.18221502	      0.96565937	     -0.31047040	      7.19714702	      7.56110343	     -9.71423013	    -17.33275357	      9.04041820	      0.56467913	      9.64069042	     -7.56613637	      8.50172750	    -19.31617900	     11.24202114	      2.60557064	     -0.32648314	      6.67436124	     -5.40099399
      0.08000000	     -1.21852544	     -6.74441431	      9.05777160	      1.17907099	      0.96584780	     -0.31027464	      7.48765929	      7.30366553	    -10.16617037	    -17.21509155	      8.92370183	      0.60934565	     10.13670710	     -7.29796470	      8.91425393	    -19.34951079	     10.82497511	      2.81017784	     -0.39160307	      6.53000847	     -5.39033846
      0.09000000	     -1.37363422	     -6.54365183	      9.54171496	      1.17588735	      0.96610087	     -0.31013148	      7.75018840	      7.01838670	    -10.62524875	    -17.06683301	      8.80032465	      0.64791830	     10.57519282	     -7.00074489	      9.34921752	    -19.29607808	     10.37823788	      2.99035212	     -0.47008494	      6.36543621	     -5.38321745
      0.10000000	     -1.57432219	     -6.37155822	     10.03986176	      1.17251361	      0.96628106	     -0.31002946	      8.10054529	      6.73909760	    -11.10890076	    -16.96725034	      8.65491436	      0.70617348	     11.10780699	     -6.71414961	      9.75801720	    -19.29261468	      9.94383992	      3.23357673	     -0.51342067	      6.23192652	     -5.40412305
